<mxfile host="app.diagrams.net" agent="Mozilla/5.0 (X11; Linux x86_64; rv:134.0) Gecko/20100101 Firefox/134.0" version="26.0.7">
  <diagram name="Page-1" id="07BJfIOwxcd8b2XxtR4V">
    <mxGraphModel dx="1363" dy="790" grid="1" gridSize="10" guides="1" tooltips="1" connect="1" arrows="1" fold="1" page="1" pageScale="1" pageWidth="850" pageHeight="1100" math="0" shadow="0">
      <root>
        <mxCell id="0" />
        <mxCell id="1" parent="0" />
        <mxCell id="fENP8VsuC2PlZzltig1S-1" value="User" style="swimlane;" vertex="1" parent="1">
          <mxGeometry x="190" y="40" width="370" height="590" as="geometry" />
        </mxCell>
        <mxCell id="fENP8VsuC2PlZzltig1S-2" value="" style="ellipse;html=1;shape=startState;fillColor=#000000;strokeColor=#ff0000;" vertex="1" parent="fENP8VsuC2PlZzltig1S-1">
          <mxGeometry x="164.75" y="30" width="30" height="30" as="geometry" />
        </mxCell>
        <mxCell id="fENP8VsuC2PlZzltig1S-3" value="" style="edgeStyle=orthogonalEdgeStyle;html=1;verticalAlign=bottom;endArrow=open;endSize=8;strokeColor=#ff0000;rounded=0;entryX=0.5;entryY=0;entryDx=0;entryDy=0;" edge="1" parent="fENP8VsuC2PlZzltig1S-1" source="fENP8VsuC2PlZzltig1S-2" target="fENP8VsuC2PlZzltig1S-4">
          <mxGeometry relative="1" as="geometry">
            <mxPoint x="179.75" y="130" as="targetPoint" />
          </mxGeometry>
        </mxCell>
        <mxCell id="fENP8VsuC2PlZzltig1S-4" value="Click on Upload button" style="rounded=1;whiteSpace=wrap;html=1;arcSize=50;fontColor=#000000;fillColor=#ffffc0;strokeColor=#ff0000;" vertex="1" parent="fENP8VsuC2PlZzltig1S-1">
          <mxGeometry x="119.75" y="80" width="120" height="40" as="geometry" />
        </mxCell>
        <mxCell id="fENP8VsuC2PlZzltig1S-5" value="" style="edgeStyle=orthogonalEdgeStyle;html=1;verticalAlign=bottom;endArrow=open;endSize=8;strokeColor=#ff0000;rounded=0;entryX=0.5;entryY=0;entryDx=0;entryDy=0;" edge="1" parent="fENP8VsuC2PlZzltig1S-1" source="fENP8VsuC2PlZzltig1S-4" target="fENP8VsuC2PlZzltig1S-6">
          <mxGeometry relative="1" as="geometry">
            <mxPoint x="179.75" y="260" as="targetPoint" />
            <Array as="points" />
          </mxGeometry>
        </mxCell>
        <mxCell id="fENP8VsuC2PlZzltig1S-6" value="Choose Files to Upload" style="rounded=1;whiteSpace=wrap;html=1;arcSize=40;fontColor=#000000;fillColor=#ffffc0;strokeColor=#ff0000;" vertex="1" parent="fENP8VsuC2PlZzltig1S-1">
          <mxGeometry x="120" y="140" width="120" height="40" as="geometry" />
        </mxCell>
        <mxCell id="fENP8VsuC2PlZzltig1S-7" value="" style="edgeStyle=orthogonalEdgeStyle;html=1;verticalAlign=bottom;endArrow=open;endSize=8;strokeColor=#ff0000;rounded=0;entryX=0.5;entryY=0;entryDx=0;entryDy=0;" edge="1" parent="fENP8VsuC2PlZzltig1S-1" source="fENP8VsuC2PlZzltig1S-6" target="fENP8VsuC2PlZzltig1S-25">
          <mxGeometry relative="1" as="geometry">
            <mxPoint x="180" y="260" as="targetPoint" />
            <Array as="points" />
          </mxGeometry>
        </mxCell>
        <mxCell id="fENP8VsuC2PlZzltig1S-8" value="Add Headers and Sign the message using Private Key" style="rounded=1;whiteSpace=wrap;html=1;arcSize=40;fontColor=#000000;fillColor=#ffffc0;strokeColor=#ff0000;" vertex="1" parent="fENP8VsuC2PlZzltig1S-1">
          <mxGeometry x="120" y="260" width="120" height="50" as="geometry" />
        </mxCell>
        <mxCell id="fENP8VsuC2PlZzltig1S-9" value="" style="ellipse;html=1;shape=endState;fillColor=#000000;strokeColor=#ff0000;" vertex="1" parent="fENP8VsuC2PlZzltig1S-1">
          <mxGeometry x="160" y="505" width="30" height="30" as="geometry" />
        </mxCell>
        <mxCell id="fENP8VsuC2PlZzltig1S-25" value="Encrypt Files Using Public Key" style="rounded=1;whiteSpace=wrap;html=1;arcSize=40;fontColor=#000000;fillColor=#ffffc0;strokeColor=#ff0000;" vertex="1" parent="fENP8VsuC2PlZzltig1S-1">
          <mxGeometry x="120" y="200" width="120" height="40" as="geometry" />
        </mxCell>
        <mxCell id="fENP8VsuC2PlZzltig1S-26" value="" style="edgeStyle=orthogonalEdgeStyle;html=1;verticalAlign=bottom;endArrow=open;endSize=8;strokeColor=#ff0000;rounded=0;entryX=0.5;entryY=0;entryDx=0;entryDy=0;" edge="1" source="fENP8VsuC2PlZzltig1S-25" parent="fENP8VsuC2PlZzltig1S-1" target="fENP8VsuC2PlZzltig1S-8">
          <mxGeometry relative="1" as="geometry">
            <mxPoint x="-20" y="300" as="targetPoint" />
          </mxGeometry>
        </mxCell>
        <mxCell id="fENP8VsuC2PlZzltig1S-27" value="Send" style="rounded=1;whiteSpace=wrap;html=1;arcSize=40;fontColor=#000000;fillColor=#ffffc0;strokeColor=#ff0000;" vertex="1" parent="fENP8VsuC2PlZzltig1S-1">
          <mxGeometry x="120" y="330" width="120" height="40" as="geometry" />
        </mxCell>
        <mxCell id="fENP8VsuC2PlZzltig1S-21" value="" style="edgeStyle=orthogonalEdgeStyle;html=1;verticalAlign=bottom;endArrow=open;endSize=8;strokeColor=#ff0000;rounded=0;exitX=0.5;exitY=1;exitDx=0;exitDy=0;entryX=0.5;entryY=0;entryDx=0;entryDy=0;" edge="1" parent="fENP8VsuC2PlZzltig1S-1" source="fENP8VsuC2PlZzltig1S-8" target="fENP8VsuC2PlZzltig1S-27">
          <mxGeometry relative="1" as="geometry">
            <mxPoint x="180" y="510" as="targetPoint" />
            <mxPoint x="240" y="380" as="sourcePoint" />
          </mxGeometry>
        </mxCell>
        <mxCell id="fENP8VsuC2PlZzltig1S-10" value="server" style="swimlane;" vertex="1" parent="1">
          <mxGeometry x="550" y="40" width="350" height="590" as="geometry" />
        </mxCell>
        <mxCell id="fENP8VsuC2PlZzltig1S-11" value="Validate the Signature" style="rounded=1;whiteSpace=wrap;html=1;arcSize=40;fontColor=#000000;fillColor=#ffffc0;strokeColor=#ff0000;" vertex="1" parent="fENP8VsuC2PlZzltig1S-10">
          <mxGeometry x="115" y="130" width="120" height="40" as="geometry" />
        </mxCell>
        <mxCell id="fENP8VsuC2PlZzltig1S-12" value="" style="edgeStyle=orthogonalEdgeStyle;html=1;verticalAlign=bottom;endArrow=open;endSize=8;strokeColor=#ff0000;rounded=0;entryX=0.5;entryY=0;entryDx=0;entryDy=0;" edge="1" parent="fENP8VsuC2PlZzltig1S-10" source="fENP8VsuC2PlZzltig1S-11" target="fENP8VsuC2PlZzltig1S-35">
          <mxGeometry relative="1" as="geometry">
            <mxPoint x="175" y="250" as="targetPoint" />
          </mxGeometry>
        </mxCell>
        <mxCell id="fENP8VsuC2PlZzltig1S-13" value="Find Peers to store the files" style="rounded=1;whiteSpace=wrap;html=1;arcSize=40;fontColor=#000000;fillColor=#ffffc0;strokeColor=#ff0000;" vertex="1" parent="fENP8VsuC2PlZzltig1S-10">
          <mxGeometry x="114" y="360" width="120" height="40" as="geometry" />
        </mxCell>
        <mxCell id="fENP8VsuC2PlZzltig1S-14" value="Add Record of file in DataBase" style="rounded=1;whiteSpace=wrap;html=1;arcSize=40;fontColor=#000000;fillColor=#ffffc0;strokeColor=#ff0000;" vertex="1" parent="fENP8VsuC2PlZzltig1S-10">
          <mxGeometry x="120" y="460" width="120" height="40" as="geometry" />
        </mxCell>
        <mxCell id="fENP8VsuC2PlZzltig1S-35" value="" style="rhombus;whiteSpace=wrap;html=1;fontColor=#000000;fillColor=#ffffc0;strokeColor=#ff0000;" vertex="1" parent="fENP8VsuC2PlZzltig1S-10">
          <mxGeometry x="134" y="260" width="80" height="40" as="geometry" />
        </mxCell>
        <mxCell id="fENP8VsuC2PlZzltig1S-37" value="&lt;div&gt;valid&lt;/div&gt;" style="edgeStyle=orthogonalEdgeStyle;html=1;align=left;verticalAlign=top;endArrow=open;endSize=8;strokeColor=#ff0000;rounded=0;entryX=0.5;entryY=0;entryDx=0;entryDy=0;" edge="1" source="fENP8VsuC2PlZzltig1S-35" parent="fENP8VsuC2PlZzltig1S-10" target="fENP8VsuC2PlZzltig1S-13">
          <mxGeometry x="-1" relative="1" as="geometry">
            <mxPoint x="174" y="360" as="targetPoint" />
          </mxGeometry>
        </mxCell>
        <mxCell id="fENP8VsuC2PlZzltig1S-15" value="Peers" style="swimlane;" vertex="1" parent="1">
          <mxGeometry x="900" y="40" width="350" height="590" as="geometry" />
        </mxCell>
        <mxCell id="fENP8VsuC2PlZzltig1S-16" value="Store?" style="rhombus;whiteSpace=wrap;html=1;fontColor=#000000;fillColor=#ffffc0;strokeColor=#ff0000;" vertex="1" parent="fENP8VsuC2PlZzltig1S-15">
          <mxGeometry x="135" y="360" width="80" height="40" as="geometry" />
        </mxCell>
        <mxCell id="fENP8VsuC2PlZzltig1S-17" value="no" style="edgeStyle=orthogonalEdgeStyle;html=1;align=left;verticalAlign=bottom;endArrow=open;endSize=8;strokeColor=#ff0000;rounded=0;entryX=0.5;entryY=1;entryDx=0;entryDy=0;" edge="1" parent="fENP8VsuC2PlZzltig1S-15" source="fENP8VsuC2PlZzltig1S-16" target="fENP8VsuC2PlZzltig1S-20">
          <mxGeometry x="-1" relative="1" as="geometry">
            <mxPoint x="270" y="310" as="targetPoint" />
          </mxGeometry>
        </mxCell>
        <mxCell id="fENP8VsuC2PlZzltig1S-18" value="yes" style="edgeStyle=orthogonalEdgeStyle;html=1;align=left;verticalAlign=top;endArrow=open;endSize=8;strokeColor=#ff0000;rounded=0;" edge="1" parent="fENP8VsuC2PlZzltig1S-15" source="fENP8VsuC2PlZzltig1S-16">
          <mxGeometry x="-1" relative="1" as="geometry">
            <mxPoint x="175" y="470" as="targetPoint" />
          </mxGeometry>
        </mxCell>
        <mxCell id="fENP8VsuC2PlZzltig1S-19" value="Notify Server" style="rounded=1;whiteSpace=wrap;html=1;arcSize=40;fontColor=#000000;fillColor=#ffffc0;strokeColor=#ff0000;" vertex="1" parent="fENP8VsuC2PlZzltig1S-15">
          <mxGeometry x="115" y="460" width="120" height="40" as="geometry" />
        </mxCell>
        <mxCell id="fENP8VsuC2PlZzltig1S-20" value="Ignore the Message" style="rounded=1;whiteSpace=wrap;html=1;arcSize=40;fontColor=#000000;fillColor=#ffffc0;strokeColor=#ff0000;" vertex="1" parent="fENP8VsuC2PlZzltig1S-15">
          <mxGeometry x="210" y="250" width="120" height="40" as="geometry" />
        </mxCell>
        <mxCell id="fENP8VsuC2PlZzltig1S-22" value="" style="edgeStyle=orthogonalEdgeStyle;html=1;verticalAlign=bottom;endArrow=open;endSize=8;strokeColor=#ff0000;rounded=0;entryX=0;entryY=0.5;entryDx=0;entryDy=0;" edge="1" parent="1" source="fENP8VsuC2PlZzltig1S-13" target="fENP8VsuC2PlZzltig1S-16">
          <mxGeometry relative="1" as="geometry">
            <mxPoint x="1030" y="440" as="targetPoint" />
          </mxGeometry>
        </mxCell>
        <mxCell id="fENP8VsuC2PlZzltig1S-23" value="" style="edgeStyle=orthogonalEdgeStyle;html=1;verticalAlign=bottom;endArrow=open;endSize=8;strokeColor=#ff0000;rounded=0;" edge="1" parent="1" source="fENP8VsuC2PlZzltig1S-19">
          <mxGeometry relative="1" as="geometry">
            <mxPoint x="790" y="520" as="targetPoint" />
          </mxGeometry>
        </mxCell>
        <mxCell id="fENP8VsuC2PlZzltig1S-24" value="" style="edgeStyle=orthogonalEdgeStyle;html=1;verticalAlign=bottom;endArrow=open;endSize=8;strokeColor=#ff0000;rounded=0;entryX=0.5;entryY=0;entryDx=0;entryDy=0;" edge="1" parent="1" source="fENP8VsuC2PlZzltig1S-14" target="fENP8VsuC2PlZzltig1S-9">
          <mxGeometry relative="1" as="geometry">
            <mxPoint x="730" y="570" as="targetPoint" />
          </mxGeometry>
        </mxCell>
        <mxCell id="fENP8VsuC2PlZzltig1S-28" value="" style="edgeStyle=orthogonalEdgeStyle;html=1;verticalAlign=bottom;endArrow=open;endSize=8;strokeColor=#ff0000;rounded=0;entryX=0;entryY=0.5;entryDx=0;entryDy=0;" edge="1" source="fENP8VsuC2PlZzltig1S-27" parent="1" target="fENP8VsuC2PlZzltig1S-11">
          <mxGeometry relative="1" as="geometry">
            <mxPoint x="380" y="470" as="targetPoint" />
            <Array as="points">
              <mxPoint x="510" y="390" />
              <mxPoint x="510" y="190" />
            </Array>
          </mxGeometry>
        </mxCell>
        <mxCell id="fENP8VsuC2PlZzltig1S-36" value="invalid" style="edgeStyle=orthogonalEdgeStyle;html=1;align=left;verticalAlign=bottom;endArrow=open;endSize=8;strokeColor=#ff0000;rounded=0;exitX=0;exitY=0.5;exitDx=0;exitDy=0;entryX=1;entryY=0.5;entryDx=0;entryDy=0;" edge="1" source="fENP8VsuC2PlZzltig1S-35" parent="1" target="fENP8VsuC2PlZzltig1S-9">
          <mxGeometry x="-1" relative="1" as="geometry">
            <mxPoint x="590" y="570" as="targetPoint" />
          </mxGeometry>
        </mxCell>
      </root>
    </mxGraphModel>
  </diagram>
</mxfile>
